<?xml version="1.0" encoding="utf-8"?>
<?xml-stylesheet type="text/xsl" href="rss1.xsl"?>
<rss version="2.0" xmlns:atom="http://www.w3.org/2005/Atom" xmlns:content="http://purl.org/rss/1.0/modules/content/" xmlns:dc="http://purl.org/dc/elements/1.1/" xmlns:media="http://search.yahoo.com/mrss/">
<channel>
 <title>Getty</title>
 <link>http://www.gettyimg.com/</link>
 <atom:link href="http://www.gettyimg.com/" rel="self" type="application/rss+xml" />

 
                <item>
                <title><![CDATA[【Requests】[REQ AUD] - Dolby Atmos Versions of The Melodic Blue Tracks]]></title>
                <link><![CDATA[https://sharemania.us/threads/dolby-atmos-versions-of-the-melodic-blue-tracks.251392/]]></link>
                <description><![CDATA[<article>
<blockquote class="messageText SelectQuoteContainer ugc baseHtml">
Does anyone have the lossless .flac or .m4a Dolby Atmos mixes of these tracks off The Melodic Blue by Baby Keem?:<br>
1. trademark usa<br>
2. pink panties<br>
6. gorgeous<br>
Those are the only tracks known that had a Dolby Atmos mixed songs and were uploaded to Apple Music, but I believe was taken down. If you could share these it would be greatly appreciated. Thank you.
<div class="messageTextEndMarker">&nbsp;</div>
</blockquote>
</article>]]></description>
                <author><![CDATA[VexNightYT]]></author>
                </item>

                
                <item>
                <title><![CDATA[【Requests】[REQ AUD] - BBNO$ - Edamame FLAC]]></title>
                <link><![CDATA[https://sharemania.us/threads/bbno-edamame-flac.251393/]]></link>
                <description><![CDATA[<article>
<blockquote class="messageText SelectQuoteContainer ugc baseHtml">
Hey!<br>
<br>
Can someone upload this? I found an old thread here, but the link was dead...<br>
<br>
Thank you in advance! <img src="styles/default/xenforo/smilies/big_smile-48.png" class="mceSmilie" alt=":)" title="Smile    :)">
<div class="messageTextEndMarker">&nbsp;</div>
</blockquote>
</article>]]></description>
                <author><![CDATA[dubego]]></author>
                </item>

                
                <item>
                <title><![CDATA[【HD Live Performances】WEB-RiP - Celine Dion - Hymne À L'amour (Paris 2024 Olympics) [NBC VERSION] [.mp4 - 1080p]]]></title>
                <link><![CDATA[https://sharemania.us/threads/celine-dion-hymne-%C3%80-lamour-paris-2024-olympics-nbc-version-mp4-1080p.251391/]]></link>
                <description><![CDATA[<article>
<blockquote class="messageText SelectQuoteContainer ugc baseHtml">
<div style="text-align: center">This version has alternate footage at the end of the performance, where we can see Celine instead of the Olympics ending message. This was aired on the NBC transmission. File taken from their website.​</div><br>
<div class="ToggleTriggerAnchor bbCodeSpoilerContainer">
<button type="button" class="button bbCodeSpoilerButton ToggleTrigger Tooltip JsOnly" data-target="> .SpoilerTarget"><span>Spoiler: <span class="SpoilerTitle">MEDIA INFO</span></span></button>
<div class="SpoilerTarget bbCodeSpoilerText">General<br>
Complete name : Hymne À L'amour (NBC version).mp4<br>
Format : MPEG-4<br>
Format profile : Base Media / Version 2<br>
File size : 234 MiB<br>
Duration : 4 min 35 s<br>
Overall bit rate mode : Variable<br>
Overall bit rate : 7 125 kb/s<br>
Encoded date : UTC 2024-07-27 04:56:24<br>
Tagged date : UTC 2024-07-27 04:56:24<br>
<br>
Video<br>
ID : 1<br>
Format : AVC<br>
Format/Info : Advanced Video Codec<br>
Format profile : High<br>
Format level : 4<br>
Format settings, CABAC : Yes<br>
Format settings, Reference frames : 3 frames<br>
Format settings, GOP : M=4, N=60<br>
Codec ID : avc1<br>
Duration : 4 min 35 s<br>
Bit rate mode : Constant<br>
Bit rate : 6 872 kb/s<br>
Maximum bit rate : 9 764 kb/s<br>
Width : 1 920 pixels<br>
Height : 1 080 pixels<br>
Display aspect ratio : 16:9<br>
Frame rate mode : Constant<br>
Frame rate : 29.970 FPS<br>
Color space : YUV<br>
Chroma subsampling : 4:2:0<br>
Bit depth : 8 bits<br>
Scan type : Progressive<br>
Bits/(Pixel*Frame) : 0.111<br>
Stream size : 225 MiB (96%)<br>
Encoded date : UTC 2024-07-27 04:56:24<br>
Tagged date : UTC 2024-07-27 04:56:24<br>
Codec configuration box : avcC<br>
<br>
Audio #1<br>
ID : 2<br>
Format : AAC LC<br>
Format/Info : Advanced Audio Codec<br>
Codec ID : mp4a-40-2<br>
Duration : 4 min 35 s<br>
Bit rate mode : Variable<br>
Bit rate : 128 kb/s<br>
Maximum bit rate : 133 kb/s<br>
Channel(s) : 1 channel<br>
Channel layout : C<br>
Sampling rate : 44.1 kHz<br>
Frame rate : 43.066 FPS (1024 SPF)<br>
Compression mode : Lossy<br>
Stream size : 4.21 MiB (2%)<br>
Encoded date : UTC 2024-07-27 04:56:24<br>
Tagged date : UTC 2024-07-27 04:56:24<br>
<br>
Audio #2<br>
ID : 3<br>
Format : AAC LC<br>
Format/Info : Advanced Audio Codec<br>
Codec ID : mp4a-40-2<br>
Duration : 4 min 35 s<br>
Bit rate mode : Variable<br>
Bit rate : 128 kb/s<br>
Maximum bit rate : 133 kb/s<br>
Channel(s) : 1 channel<br>
Channel layout : C<br>
Sampling rate : 44.1 kHz<br>
Frame rate : 43.066 FPS (1024 SPF)<br>
Compression mode : Lossy<br>
Stream size : 4.21 MiB (2%)<br>
Encoded date : UTC 2024-07-27 04:56:24<br>
Tagged date : UTC 2024-07-27 04:56:24<br>
<br>
Text #1<br>
ID : 1-CC1<br>
Format : EIA-608<br>
Muxing mode : SCTE 128 / DTVCC Transport<br>
Muxing mode, more info : Muxed in Video #1<br>
Duration : 4 min 35 s<br>
Start time (commands) : 701 ms<br>
Start time : 834 ms<br>
Bit rate mode : Constant<br>
Stream size : 0.00 Byte (0%)<br>
Count of frames before first event : 25<br>
Type of the first event : PopOn<br>
<br>
Text #2<br>
ID : 1-1<br>
Format : EIA-708<br>
Muxing mode : SCTE 128 / DTVCC Transport<br>
Muxing mode, more info : Muxed in Video #1<br>
Duration : 4 min 35 s<br>
Bit rate mode : Constant<br>
Stream size : 0.00 Byte (0%)</div>
</div><br>
<div style="text-align: center">
<div class="bbCodeBlock bbCodeVfcHH HiddenContent">
<div class="attribution type">Hidden Content:</div>
<blockquote>You must reply before you can see the hidden data contained here.</blockquote>
</div></div>
<div class="messageTextEndMarker">&nbsp;</div>
</blockquote>
</article>]]></description>
                <author><![CDATA[msc93]]></author>
                </item>

                
                <item>
                <title><![CDATA[【Albums (lossy)】iTunes Plus - Janet Jackson - Janet Remixed [iTunes Plus M4A]]]></title>
                <link><![CDATA[https://sharemania.us/threads/janet-jackson-janet-remixed-itunes-plus-m4a.251390/]]></link>
                <description><![CDATA[<article>
<blockquote class="messageText SelectQuoteContainer ugc baseHtml">
thanks!
<div class="messageTextEndMarker">&nbsp;</div>
</blockquote>
</article>]]></description>
                <author><![CDATA[Corey Vuitton]]></author>
                </item>

                </channel></rss>